<svg width="72" height="72" viewBox="0 0 72 72" fill="none" xmlns="http://www.w3.org/2000/svg">
<path d="M0 36C0 16.1178 16.1178 0 36 0C55.8823 0 72 16.1178 72 36C72 55.8823 55.8823 72 36 72C16.1178 72 0 55.8823 0 36Z" fill="#E74040"/>
<g clip-path="url(#clip0_273_699)">
<g clip-path="url(#clip1_273_699)">
<g clip-path="url(#clip2_273_699)">
<path d="M25.6131 47.5456H47.4105C47.4773 47.5456 47.5419 47.5361 47.6041 47.5213C47.609 47.5213 47.6131 47.5221 47.6181 47.5221C48.0834 47.5221 48.4614 47.1445 48.4614 46.6788V22.8433C48.4615 22.3778 48.0834 22 47.6181 22H47.4122H26.9619H25.6143C23.3696 22 21.5437 23.8263 21.5437 26.0704C21.5437 26.1005 21.5497 26.129 21.5526 26.1581C21.5497 28.2311 21.5239 47.2792 21.5497 49.7833C21.548 49.8322 21.5421 49.88 21.5421 49.9295C21.5421 52.0873 23.2317 53.8538 25.3569 53.9873C25.3995 53.9939 25.4413 54.0001 25.4856 54.0001H47.618C48.0833 54.0001 48.4614 53.6225 48.4614 53.1567V49.9823C48.4614 49.5169 48.0833 49.139 47.618 49.139C47.1528 49.139 46.7747 49.517 46.7747 49.9823V52.3135H25.6131C24.3316 52.3135 23.2854 51.296 23.234 50.0272C23.2353 50.0045 23.2394 49.9831 23.239 49.9601C23.2381 49.923 23.2369 49.8654 23.236 49.7888C23.3098 48.54 24.3462 47.5456 25.6131 47.5456ZM26.1882 26.0704C26.1882 25.6049 26.566 25.227 27.0315 25.227C27.497 25.227 27.8748 25.6049 27.8748 26.0704V43.2008C27.8748 43.6661 27.497 44.0441 27.0315 44.0441C26.566 44.0441 26.1882 43.666 26.1882 43.2008V26.0704Z" fill="white"/>
</g>
</g>
</g>
<defs>
<clipPath id="clip0_273_699">
<rect width="32" height="32" fill="white" transform="translate(19 22)"/>
</clipPath>
<clipPath id="clip1_273_699">
<rect width="32" height="32" fill="white" transform="translate(19 22)"/>
</clipPath>
<clipPath id="clip2_273_699">
<rect width="26.9231" height="32.0001" fill="white" transform="translate(21.5383 22)"/>
</clipPath>
</defs>
</svg>
